# xmcd CD database file
#
# Track frame offsets:
#	182
#	12200
#	25257
#	37495
#	48387
#	61980
#	76327
#	90660
#	102675
#	115775
#	128187
#	139967
#	153485
#	169210
#	182152
#	193975
#
# Disc length: 2745 seconds
#
# Revision: 0
# Processed by: cddbd v1.5.2PL0 Copyright (c) Steve Scherf et al.
# Submitted via: CDex 1.70beta1
#
DISCID=e60ab710
DTITLE=Ambrose And His Orchestra - Nights On The Town 30s Style
DYEAR=1900
DGENRE=British Dance Bands
TTITLE0=Love Is The Sweetest Thing
TTITLE1=Marching along Together
TTITLE2=At Eventide
TTITLE3=Low Down
TTITLE4=Don't Say Goodbye
TTITLE5=Just Friends
TTITLE6=When Mother Played The Organ (And Daddy Sang A Hymn)
TTITLE7=Let's Put Out The Lights And Go To Sleep
TTITLE8=Please
TTITLE9=Here Lies Love
TTITLE10=You're The One
TTITLE11=All Of Me
TTITLE12=Nicolette
TTITLE13=I Still Get A Thrill (Thinking Of You)
TTITLE14=Living In The Sunlight Lovin' In The Moonlight
TTITLE15=Big Ben's Saying Goodnight
EXTD=
EXTT0=
EXTT1=
EXTT2=
EXTT3=
EXTT4=
EXTT5=
EXTT6=
EXTT7=
EXTT8=
EXTT9=
EXTT10=
EXTT11=
EXTT12=
EXTT13=
EXTT14=
EXTT15=
PLAYORDER=
